<svg xmlns="http://www.w3.org/2000/svg" width="180.716" height="59.998" viewBox="0 0 180.716 59.998"><g fill="#fff"><path d="M26.1 13.26c-1.08 0-1.98-.36-2.76-1.26 1.62-.96 2.7-3.18 2.7-5.16 0-2.1-1.14-4.02-4.44-4.02-3.3 0-5.52 1.86-5.52 5.46 0 8.818 13.5 10.02 13.5 22.978 0 10.08-8.16 15-16.86 15-6.84 0-12.72-3-12.72-10.32 0-6.48 4.62-9.84 8.82-9.84 2.1 0 5.1.84 5.28 3.96-3.24 0-7.02 1.5-7.02 5.64 0 3 1.92 5.76 5.76 5.76 4.02 0 6.958-2.94 6.958-7.98 0-10.26-12.3-13.918-12.3-22.738C7.5 4.5 13.62 0 21.36 0c2.82 0 9.66.6 9.66 7.2 0 3.48-1.92 6.06-4.92 6.06zM47.34 5.52L45.3 15h3.6l-.48 2.4h-3.6l-3.84 18c-.18.78-.24 1.38-.24 1.92 0 1.68.78 2.22 2.46 2.22 2.34 0 4.5-2.28 5.4-5.28h2.52c-3.42 9.78-9.36 11.1-12.6 11.1-3.6 0-6.42-2.16-6.42-7.2 0-1.14.18-2.46.48-3.9l3.6-16.86H34.2l.48-2.4h1.98l1.8-8.28 8.88-1.2z"/><path d="M77.398 15l-4.32 20.4c-.18.78-.24 1.38-.24 1.92 0 1.68.78 2.58 2.46 2.58 2.34 0 3.96-2.64 4.86-5.64h2.52c-3.42 9.778-8.82 11.1-12.06 11.1-3.36 0-5.52-1.92-5.88-5.52-1.86 2.76-4.68 5.52-8.94 5.52-4.08 0-7.978-2.52-7.978-9.66 0-8.1 4.98-21 15.42-21 3.42 0 4.86 1.32 4.86 3.06v.42l.66-3.18h8.638zm-20.7 19.858c0 4.62 1.92 4.68 3 4.68 1.74 0 4.26-1.8 4.98-5.28l2.88-13.56c0-.72-.54-2.28-2.46-2.28-5.1 0-8.4 10.8-8.4 16.44z"/><path d="M94.917 5.52L92.877 15h3.6l-.48 2.4h-3.6l-3.84 18c-.18.78-.24 1.38-.24 1.92 0 1.68.78 2.22 2.46 2.22 2.34 0 4.5-2.28 5.4-5.28h2.52c-3.42 9.78-9.36 11.1-12.6 11.1-3.6 0-6.42-2.16-6.42-7.2 0-1.14.18-2.46.48-3.9l3.6-16.86H81.78l.478-2.4h1.98l1.8-8.28 8.88-1.2z"/><path d="M108.597 40.318c4.74 0 7.62-2.64 10.62-6.06h2.04c-3.42 5.52-8.52 11.1-16.5 11.1-5.64 0-9.36-2.76-9.36-9.54 0-6.9 3.9-21.36 16.2-21.36 5.34 0 6.6 2.76 6.6 5.76 0 6.9-6.6 12.24-13.8 12.66-.06.84-.12 1.68-.12 2.4 0 4.08 1.44 5.04 4.32 5.04zm3.48-22.68c-3.06 0-6 6.42-7.198 12.36 4.618-.3 8.698-4.92 8.698-9.9 0-1.5-.36-2.46-1.5-2.46z"/><path d="M162.776 15l-4.32 20.4c-.18.78-.24 1.38-.24 1.92 0 1.68.78 2.22 2.46 2.22 2.34 0 3.96-2.28 4.86-5.28h2.52c-3.42 9.78-8.82 11.1-12.06 11.1-3.42 0-5.58-1.98-5.94-5.7-3 4.92-6.358 5.7-8.878 5.7-3.6 0-6.42-2.16-6.42-7.2 0-1.14.18-2.46.48-3.9l3.54-16.86h-7.32l-6.9 32.4c-1.8 8.58-6.78 10.2-10.74 10.2-3.66 0-7.08-2.58-7.08-6.48 0-5.52 4.62-7.26 10.32-9l7.26-34.258c1.8-8.58 6.96-10.2 10.92-10.2 3.66 0 7.08 2.58 7.08 6.48 0 .96-.06 1.74-.18 2.46h-2.82c.06-.6.12-1.08.12-1.62 0-1.38-1.08-2.04-2.28-2.04-1.32 0-3.36.9-4.2 4.92l-1.02 4.74h16.02l-4.32 20.398c-.12.6-.18 1.14-.18 1.68 0 1.38.48 2.46 1.8 2.46 2.34 0 3.9-2.28 4.8-5.28L154.136 15h8.64zm-50.338 39.657c1.26 0 2.64-1.14 3.42-4.68l.78-3.48c-3.78 1.26-6.6 2.94-6.6 6.18 0 .84 1.08 1.98 2.4 1.98z"/><path d="M173.817 35.278c-.12.6-.24 1.2-.24 1.74 0 1.38.6 2.4 2.46 2.4 1.08 0 1.56-.18 1.92-.36-.3 4.26-3.36 6.3-6.6 6.3-3.6 0-6.42-2.22-6.42-7.32 0-1.14.18-2.46.48-3.9l6.42-30.058 8.88-1.2-6.9 32.398z"/></g></svg>
